<svg width="40" height="40" viewBox="0 0 40 40" fill="none" xmlns="http://www.w3.org/2000/svg">
<path d="M8.33333 15V26.6667" stroke="white" stroke-width="1.5" stroke-linecap="round" stroke-linejoin="round"/>
<path d="M8.75 14.1668C11.7415 14.1668 14.1667 11.7417 14.1667 8.75016C14.1667 5.75862 11.7415 3.3335 8.75 3.3335C5.75846 3.3335 3.33333 5.75862 3.33333 8.75016C3.33333 11.7417 5.75846 14.1668 8.75 14.1668Z" stroke="white" stroke-width="1.5" stroke-linecap="round" stroke-linejoin="round"/>
<path d="M8.33333 36.6665C11.0948 36.6665 13.3333 34.4279 13.3333 31.6665C13.3333 28.9051 11.0948 26.6665 8.33333 26.6665C5.57191 26.6665 3.33333 28.9051 3.33333 31.6665C3.33333 34.4279 5.57191 36.6665 8.33333 36.6665Z" stroke="white" stroke-width="1.5" stroke-linecap="round" stroke-linejoin="round"/>
<path d="M31.6667 36.6665C34.4281 36.6665 36.6667 34.4279 36.6667 31.6665C36.6667 28.9051 34.4281 26.6665 31.6667 26.6665C28.9052 26.6665 26.6667 28.9051 26.6667 31.6665C26.6667 34.4279 28.9052 36.6665 31.6667 36.6665Z" stroke="white" stroke-width="1.5" stroke-linecap="round" stroke-linejoin="round"/>
<path d="M8.55 15C9.3 17.9167 11.9667 20.0833 15.1167 20.0667L20.8333 20.05C25.2 20.0333 28.9167 22.8333 30.2833 26.7333" stroke="white" stroke-width="1.5" stroke-linecap="round" stroke-linejoin="round"/>
</svg>
