<svg width="40" height="40" viewBox="0 0 40 40" fill="none" xmlns="http://www.w3.org/2000/svg">
<path d="M11.6667 13.3335H6.66667C4.83333 13.3335 3.33333 11.8335 3.33333 10.0002V6.66683C3.33333 4.8335 4.83333 3.3335 6.66667 3.3335H11.6667C13.5 3.3335 15 4.8335 15 6.66683V10.0002C15 11.8335 13.5 13.3335 11.6667 13.3335Z" stroke="white" stroke-width="1.5" stroke-linecap="round" stroke-linejoin="round"/>
<path d="M34.6667 11.6667H28.6667C27.5667 11.6667 26.6667 10.7666 26.6667 9.66665V7.00002C26.6667 5.90002 27.5667 5 28.6667 5H34.6667C35.7667 5 36.6667 5.90002 36.6667 7.00002V9.66665C36.6667 10.7666 35.7667 11.6667 34.6667 11.6667Z" stroke="white" stroke-width="1.5" stroke-linecap="round" stroke-linejoin="round"/>
<path d="M34.6667 24.1667H28.6667C27.5667 24.1667 26.6667 23.2666 26.6667 22.1666V19.5C26.6667 18.4 27.5667 17.5 28.6667 17.5H34.6667C35.7667 17.5 36.6667 18.4 36.6667 19.5V22.1666C36.6667 23.2666 35.7667 24.1667 34.6667 24.1667Z" stroke="white" stroke-width="1.5" stroke-linecap="round" stroke-linejoin="round"/>
<path d="M15 8.3335H26.6667" stroke="white" stroke-width="1.5" stroke-miterlimit="10" stroke-linecap="round" stroke-linejoin="round"/>
<path d="M20.8333 8.3335V30.0002C20.8333 31.8335 22.3333 33.3335 24.1667 33.3335H26.6667" fill="white"/>
<path d="M20.8333 8.3335V30.0002C20.8333 31.8335 22.3333 33.3335 24.1667 33.3335H26.6667" stroke="white" stroke-width="1.5" stroke-miterlimit="10" stroke-linecap="round" stroke-linejoin="round"/>
<path d="M20.8333 20.8335H26.6667" stroke="white" stroke-width="1.5" stroke-miterlimit="10" stroke-linecap="round" stroke-linejoin="round"/>
<path d="M34.6667 36.6667H28.6667C27.5667 36.6667 26.6667 35.7666 26.6667 34.6666V32C26.6667 30.9 27.5667 30 28.6667 30H34.6667C35.7667 30 36.6667 30.9 36.6667 32V34.6666C36.6667 35.7666 35.7667 36.6667 34.6667 36.6667Z" stroke="white" stroke-width="1.5" stroke-linecap="round" stroke-linejoin="round"/>
</svg>
