<svg width="60" height="60" viewBox="0 0 60 60" fill="none" xmlns="http://www.w3.org/2000/svg">
<path d="M12.5 0C9.18479 0 6.00537 1.31696 3.66117 3.66117C1.31696 6.00537 0 9.18479 0 12.5V47.5C0 50.8152 1.31696 53.9946 3.66117 56.3388C6.00537 58.683 9.18479 60 12.5 60H47.5C50.8152 60 53.9946 58.683 56.3388 56.3388C58.683 53.9946 60 50.8152 60 47.5V12.5C60 9.18479 58.683 6.00537 56.3388 3.66117C53.9946 1.31696 50.8152 0 47.5 0H12.5ZM44.27 24.27L26.77 41.77C26.5378 42.0028 26.2619 42.1875 25.9582 42.3136C25.6544 42.4396 25.3288 42.5045 25 42.5045C24.6712 42.5045 24.3456 42.4396 24.0418 42.3136C23.7381 42.1875 23.4622 42.0028 23.23 41.77L15.73 34.27C15.4976 34.0376 15.3132 33.7616 15.1874 33.4579C15.0616 33.1542 14.9968 32.8287 14.9968 32.5C14.9968 32.1713 15.0616 31.8458 15.1874 31.5421C15.3132 31.2384 15.4976 30.9624 15.73 30.73C16.1994 30.2606 16.8361 29.9968 17.5 29.9968C17.8287 29.9968 18.1542 30.0616 18.4579 30.1874C18.7616 30.3132 19.0376 30.4976 19.27 30.73L25 36.465L40.73 20.73C41.1994 20.2606 41.8361 19.9968 42.5 19.9968C43.1639 19.9968 43.8006 20.2606 44.27 20.73C44.7394 21.1994 45.0032 21.8361 45.0032 22.5C45.0032 23.1639 44.7394 23.8006 44.27 24.27Z" fill="#131E47"/>
</svg>
